<svg xmlns="http://www.w3.org/2000/svg" xmlns:xlink="http://www.w3.org/1999/xlink" width="20" height="20" viewBox="0 0 20 20"><defs><style>.a{fill:#fff;}.b{clip-path:url(#a);}</style><clipPath id="a"><rect class="a" width="20" height="20" transform="translate(194 291)"/></clipPath></defs><g class="b" transform="translate(-194 -291)"><path class="a" d="M6.179-11.8q-.042.588-.084.861H8.069L7.649-8.9H5.318A5.822,5.822,0,0,1,2.777-6.72a9.075,9.075,0,0,1-3.885.777H-4.026L-4.8-2.1H-8.961L-7.6-8.9H-9.612l.42-2.037H-7.2l.168-.861H-9.024l.42-2.037h1.995l.588-2.961H.258a7.714,7.714,0,0,1,3.633.766,4.088,4.088,0,0,1,1.995,2.194H8.636l-.4,2.037Zm-7.1,2.583A3.143,3.143,0,0,0,1.213-9.87a2.322,2.322,0,0,0,.745-1.848,1.589,1.589,0,0,0-.6-1.354,2.8,2.8,0,0,0-1.711-.451H-2.514l-.861,4.3Z" transform="translate(204.488 310.45)"/></g></svg>